<?xml version="1.0" standalone="no"?>
<!DOCTYPE svg PUBLIC "-//W3C//DTD SVG 20010904//EN"
 "http://www.w3.org/TR/2001/REC-SVG-20010904/DTD/svg10.dtd">
<svg version="1.0" xmlns="http://www.w3.org/2000/svg"
 width="782.000000pt" height="502.000000pt" viewBox="0 0 782.000000 502.000000"
 preserveAspectRatio="xMidYMid meet">

<g transform="translate(0.000000,502.000000) scale(0.100000,-0.100000)"
fill="#000000" stroke="none">
<path d="M2841 4949 c-559 -59 -992 -349 -1028 -688 l-6 -58 -685 -7 c-377 -4
-687 -8 -688 -9 -1 -1 1 -26 3 -54 l6 -53 690 3 690 2 12 -40 c31 -103 116
-234 224 -342 33 -34 61 -63 61 -66 0 -2 -237 -7 -527 -11 -290 -4 -529 -8
-529 -9 -1 -1 1 -26 3 -54 l6 -53 597 7 598 6 94 -60 c79 -52 213 -128 321
-182 31 -16 33 -28 12 -58 -14 -21 -181 -304 -255 -433 -20 -36 -69 -120 -108
-186 -79 -136 -107 -208 -99 -258 l5 -33 -316 -6 c-173 -4 -385 -7 -470 -7
l-154 0 6 -22 c3 -13 6 -38 6 -56 l0 -34 513 7 512 8 135 -83 c74 -46 194
-118 265 -161 72 -42 138 -84 149 -92 16 -12 -16 -15 -254 -20 -150 -4 -334
-7 -408 -7 l-134 0 6 -22 c3 -13 6 -38 6 -56 l0 -33 498 6 497 7 500 -314
c275 -172 521 -328 548 -346 193 -134 325 -129 458 17 114 124 336 444 458
661 23 41 46 79 51 83 4 5 66 11 138 13 362 11 675 142 930 388 191 185 313
393 368 632 27 114 25 330 -5 438 -79 294 -300 526 -631 663 -88 37 -223 83
-242 83 -6 0 -46 36 -90 80 -293 297 -879 516 -1258 472 l-101 -12 -92 56
c-384 232 -850 338 -1286 293z m619 -237 c64 -12 154 -33 200 -47 118 -37 337
-145 319 -158 -2 -2 -80 -18 -174 -35 -93 -18 -222 -43 -285 -57 -135 -28
-324 -53 -467 -62 -105 -6 -129 -16 -70 -27 17 -3 43 -9 57 -11 108 -24 289
-36 440 -31 194 7 200 8 485 51 305 47 390 56 543 56 289 -1 489 -65 729 -235
40 -28 73 -54 73 -58 0 -4 -21 -4 -47 0 -27 4 -154 7 -283 6 -249 0 -386 -13
-640 -60 -220 -41 -245 -48 -199 -58 148 -33 367 -46 787 -46 191 0 358 -2
372 -4 14 -2 59 -7 100 -11 104 -9 267 -49 374 -91 284 -113 468 -299 547
-554 20 -65 23 -96 24 -225 0 -143 -2 -154 -32 -242 -43 -122 -81 -196 -144
-279 -212 -279 -549 -447 -974 -486 -145 -13 -211 -7 -249 23 -51 40 -25 94
77 160 32 21 172 94 311 163 255 126 355 186 452 270 58 51 130 134 122 141
-2 2 -20 -6 -39 -19 -65 -44 -341 -189 -493 -258 -436 -200 -643 -263 -781
-237 -61 11 -77 29 -63 70 15 44 91 106 317 258 201 136 353 260 320 261 -48
1 -206 -72 -399 -185 -162 -95 -218 -122 -302 -145 -161 -44 -267 -10 -282 93
-15 100 55 254 263 581 124 193 196 324 186 334 -7 8 -139 -135 -225 -243 -44
-55 -134 -173 -200 -262 -124 -168 -154 -197 -236 -235 -71 -33 -200 -33 -267
1 -100 49 -151 130 -151 241 0 78 19 138 113 362 63 150 92 238 79 238 -3 0
-23 -26 -45 -57 -280 -405 -319 -455 -373 -483 -79 -40 -135 -20 -170 62 -21
49 -22 60 -15 214 6 139 5 169 -10 213 -50 153 -352 346 -595 381 -84 12 -123
12 -115 0 11 -18 198 -137 355 -226 232 -132 284 -190 243 -271 -47 -94 -139
-101 -308 -23 -33 15 -69 35 -80 44 -19 14 -14 15 64 16 81 0 83 0 77 23 -3
12 -6 37 -6 55 l0 32 -169 0 -169 0 -99 79 c-141 113 -220 202 -273 307 -16
32 -27 61 -24 66 3 4 86 8 186 8 l180 0 -6 23 c-3 12 -6 37 -6 55 l0 32 -190
0 -189 0 6 33 c15 82 44 136 107 199 153 152 417 251 786 291 19 2 125 3 235
2 149 -2 229 -8 315 -23z m-418 -1631 c24 -10 187 -107 363 -216 176 -109 388
-240 470 -290 315 -192 465 -284 605 -371 80 -50 181 -112 225 -139 117 -72
165 -119 165 -162 0 -49 -17 -84 -125 -249 -251 -385 -323 -454 -429 -410 -38
16 -173 98 -570 348 -120 76 -223 138 -227 138 -5 0 -9 5 -9 10 0 6 57 10 151
10 l151 0 -6 23 c-3 12 -6 37 -6 55 l0 34 -242 -3 -243 -2 -225 138 c-124 76
-248 151 -277 168 -29 17 -50 34 -47 39 3 4 118 8 256 8 l250 0 -6 23 c-3 12
-6 37 -6 56 l0 34 -344 -6 -344 -7 -26 31 c-59 70 -50 119 60 316 218 392 242
426 318 443 39 9 63 5 118 -19z"/>
<path d="M7714 505 c-10 -24 7 -284 18 -291 21 -13 27 16 30 156 3 144 3 145
-20 148 -13 2 -25 -3 -28 -13z"/>
<path d="M1083 495 c-38 -16 -53 -42 -53 -89 0 -34 -1 -35 -42 -38 -30 -2 -43
-8 -43 -18 0 -10 13 -16 43 -18 l42 -3 0 -120 0 -119 -37 0 c-44 0 -69 -13
-59 -29 8 -12 267 -16 279 -4 4 3 2 12 -4 20 -8 8 -35 13 -80 13 l-69 0 0 120
0 119 77 3 c65 3 78 6 81 21 3 15 -6 17 -77 17 -78 0 -81 1 -81 24 0 13 10 36
21 50 21 26 25 28 98 24 63 -2 76 0 79 13 2 13 -9 18 -50 22 -73 9 -88 8 -125
-8z"/>
<path d="M4512 493 c2 -14 15 -19 51 -21 l47 -3 0 -189 0 -189 -62 -3 c-51 -2
-63 -6 -66 -21 -3 -16 7 -17 150 -15 128 3 153 5 153 18 0 12 -15 16 -67 18
l-68 3 0 209 0 210 -71 0 c-62 0 -70 -2 -67 -17z"/>
<path d="M4955 500 c-12 -20 7 -30 56 -30 l49 0 0 -190 0 -189 -67 -3 c-55 -2
-68 -6 -71 -20 -3 -17 9 -18 153 -18 144 0 156 1 153 17 -3 15 -16 19 -71 21
l-67 3 0 209 0 210 -64 0 c-36 0 -68 -4 -71 -10z"/>
<path d="M1900 474 c-47 -20 -73 -57 -73 -106 0 -52 32 -85 103 -104 30 -8 72
-19 93 -25 47 -13 71 -47 62 -89 -15 -68 -142 -96 -203 -45 -16 14 -33 36 -36
50 -4 14 -13 25 -22 25 -12 0 -14 -12 -12 -62 2 -38 8 -63 16 -66 6 -2 12 3
12 12 0 13 6 12 43 -4 114 -52 237 2 237 105 0 73 -36 102 -154 125 -102 20
-134 76 -75 131 56 52 153 32 179 -37 5 -13 16 -24 25 -24 12 0 15 12 15 54 0
57 -11 76 -34 57 -10 -8 -23 -7 -49 4 -45 19 -82 18 -127 -1z"/>
<path d="M55 470 c-12 -20 7 -30 61 -30 l54 0 0 -175 0 -175 -47 0 c-53 0 -79
-12 -69 -29 5 -7 54 -11 142 -11 124 0 135 2 132 17 -2 14 -15 19 -61 21 l-57
3 0 174 0 174 57 3 c46 2 59 7 61 21 3 15 -8 17 -132 17 -79 0 -137 -4 -141
-10z"/>
<path d="M3535 470 c-4 -6 1 -19 12 -29 15 -15 22 -49 37 -192 10 -96 21 -180
23 -186 3 -7 16 -13 28 -13 26 0 26 0 71 165 15 55 30 103 33 107 4 4 24 -55
45 -132 39 -138 40 -140 68 -140 17 0 28 5 28 13 0 8 9 94 20 192 15 139 23
180 36 190 30 22 6 35 -65 35 -72 0 -83 -4 -74 -26 3 -9 20 -14 44 -14 34 0
39 -3 39 -22 0 -33 -30 -291 -34 -295 -3 -3 -12 27 -62 205 -14 47 -18 52 -43
52 -27 0 -29 -3 -61 -122 -18 -68 -36 -126 -40 -131 -3 -4 -12 48 -19 115 -7
68 -15 140 -18 160 l-5 37 43 3 c31 2 44 7 44 18 0 12 -16 16 -72 18 -45 2
-74 -1 -78 -8z"/>
<path d="M5800 460 c0 -13 7 -20 20 -20 19 0 20 -7 20 -174 0 -165 -1 -174
-20 -179 -11 -3 -20 -12 -20 -21 0 -24 201 -23 249 2 151 76 137 357 -20 402
-19 6 -78 10 -131 10 -91 0 -98 -1 -98 -20z m246 -39 c67 -41 94 -162 54 -248
-27 -60 -68 -83 -152 -83 l-68 0 0 175 0 175 68 0 c48 0 76 -5 98 -19z"/>
<path d="M578 356 c-36 -24 -38 -25 -38 -5 0 17 -5 20 -37 17 -41 -3 -57 -26
-24 -35 20 -5 21 -12 21 -123 0 -117 0 -118 -25 -124 -14 -4 -25 -13 -25 -21
0 -12 15 -15 71 -15 62 0 70 2 67 17 -2 10 -13 19 -26 21 -21 3 -22 8 -22 97
l0 93 35 31 c27 23 45 31 73 31 71 -1 92 -41 92 -171 0 -74 -1 -77 -26 -83
-46 -12 -21 -31 39 -31 60 0 77 13 40 30 -22 9 -23 15 -23 117 0 104 -1 109
-28 139 -23 25 -38 32 -78 36 -41 4 -55 1 -86 -21z"/>
<path d="M1455 366 c-45 -19 -92 -78 -100 -124 -29 -171 179 -271 298 -144 56
59 56 156 0 223 -47 56 -131 75 -198 45z m143 -46 c59 -36 78 -118 42 -177
-27 -45 -62 -65 -115 -65 -53 0 -88 20 -115 65 -72 117 69 249 188 177z"/>
<path d="M2335 366 c-44 -20 -85 -68 -95 -112 -34 -148 111 -253 273 -198 52
18 76 39 60 55 -7 7 -24 4 -53 -11 -58 -29 -137 -30 -183 -1 -29 18 -67 72
-67 95 0 3 70 6 156 6 l157 0 -6 35 c-18 109 -141 176 -242 131z m146 -49 c18
-12 39 -34 46 -47 l12 -25 -126 -3 c-69 -1 -128 0 -131 3 -11 11 19 56 50 75
45 27 106 26 149 -3z"/>
<path d="M2780 357 c-51 -27 -90 -90 -90 -146 0 -46 36 -119 72 -145 45 -33
134 -34 202 -3 56 26 77 50 59 68 -6 6 -20 2 -38 -13 -59 -46 -158 -53 -205
-15 -69 54 -66 160 6 216 54 42 158 20 189 -39 22 -42 35 -29 35 36 0 53 -6
64 -26 44 -7 -7 -22 -6 -47 5 -52 21 -107 19 -157 -8z"/>
<path d="M4101 358 c-73 -38 -102 -99 -87 -183 9 -46 67 -110 113 -126 74 -24
223 11 223 53 0 23 -4 23 -56 -3 -85 -41 -184 -22 -224 44 -35 57 -34 57 130
57 l150 0 0 34 c0 37 -31 89 -71 118 -14 11 -49 21 -80 24 -44 4 -62 1 -98
-18z m149 -35 c14 -10 33 -27 42 -38 35 -41 26 -45 -112 -45 -92 0 -130 3
-130 12 0 6 18 28 40 50 36 33 47 38 88 38 29 0 57 -7 72 -17z"/>
<path d="M6355 373 c-32 -8 -84 -51 -101 -84 -32 -64 -16 -156 38 -206 129
-120 344 28 274 190 -34 81 -121 122 -211 100z m122 -53 c75 -45 84 -148 19
-207 -59 -54 -159 -44 -201 21 -78 118 61 260 182 186z"/>
<path d="M6820 373 c-8 -3 -27 -15 -42 -25 -28 -19 -28 -19 -28 2 0 18 -5 21
-37 18 -43 -3 -54 -31 -15 -36 21 -3 22 -7 22 -123 0 -110 -1 -119 -19 -119
-10 0 -24 -7 -31 -15 -17 -21 3 -27 76 -23 44 2 59 7 59 18 0 9 -11 16 -27 18
l-28 3 0 89 0 88 40 36 c50 45 98 49 135 11 23 -22 25 -31 25 -122 0 -91 -2
-99 -21 -108 -39 -18 -25 -30 39 -33 52 -2 62 0 62 13 0 9 -9 19 -19 22 -17 4
-19 17 -23 111 -4 120 -18 153 -70 171 -33 12 -73 13 -98 4z"/>
<path d="M7235 373 c-11 -3 -35 -16 -53 -30 -95 -72 -80 -223 28 -281 38 -20
55 -23 110 -19 68 4 127 27 137 53 10 26 -6 28 -55 6 -46 -21 -78 -27 -136
-24 -35 2 -106 70 -106 101 0 20 4 21 151 21 l152 0 -6 40 c-13 97 -115 159
-222 133z m145 -71 c22 -22 40 -44 40 -50 0 -9 -38 -12 -130 -12 -71 0 -130 3
-130 6 0 16 35 63 59 77 14 9 47 17 73 17 41 0 52 -5 88 -38z"/>
<path d="M5367 284 c-4 -4 -7 -16 -7 -26 0 -17 12 -18 161 -18 l160 0 -3 23
c-3 22 -6 22 -154 25 -82 1 -153 -1 -157 -4z"/>
<path d="M7702 108 c-29 -29 -6 -68 40 -68 34 0 54 31 38 60 -12 23 -59 27
-78 8z"/>
</g>
</svg>
